<svg width="160" height="39" viewBox="0 0 160 39" fill="none" xmlns="http://www.w3.org/2000/svg">
<g clip-path="url(#clip0_9_2)">
<path d="M84.7725 10.2099C83.9093 8.4528 82.5533 6.98502 80.8699 5.9857C79.1865 4.98638 77.2487 4.49874 75.2928 4.5823V4.5597C75.0928 4.60161 74.8865 4.60366 74.6856 4.56574C74.4848 4.52782 74.2935 4.45068 74.1225 4.33872C73.9515 4.22676 73.8043 4.08219 73.6893 3.91328C73.5742 3.74437 73.4936 3.55443 73.4521 3.35433C73.4102 3.15431 73.4081 2.94799 73.4461 2.74718C73.484 2.54636 73.5611 2.355 73.6731 2.18403C73.785 2.01306 73.9296 1.86585 74.0985 1.75082C74.2674 1.63578 74.4574 1.55518 74.6575 1.51364C74.8645 1.4708 75.0782 1.4708 75.2853 1.51364C73.6522 0.733827 71.8078 0.51321 70.0369 0.88584C67.8893 1.3368 66.0083 2.62114 64.8065 4.45713C63.6046 6.29311 63.18 8.53083 63.6258 10.6795C63.7824 11.4281 64.0418 12.1515 64.3968 12.829C63.3752 12.1475 62.5175 11.2478 61.8856 10.1948C59.6659 12.7397 58.4203 15.9891 58.3699 19.3656V25.5281C58.3699 28.9067 59.7121 32.147 62.1012 34.5361C64.4902 36.9251 67.7305 38.2673 71.1092 38.2673H75.574C78.9488 38.2613 82.1833 36.9165 84.5674 34.5281C86.9516 32.1397 88.2907 28.9028 88.2907 25.5281V19.3782C88.239 16.0022 86.9925 12.7538 84.7725 10.2099Z" fill="white"/>
<path d="M79.7451 15.86C76.1943 15.86 72.6058 17.9116 72.6058 17.9116L74.7579 15.3151C74.7579 15.3151 72.6912 17.4722 68.0631 17.4722C63.435 17.4722 61.9961 16.3949 61.9961 16.3949V24.1795C61.9965 26.0197 62.6878 27.7927 63.9333 29.1474C65.1787 30.5021 66.8874 31.3398 68.721 31.4946C68.7306 31.4706 68.7415 31.4471 68.7537 31.4243L69.6276 29.9176C69.8787 29.5083 70.2554 29.5083 70.4964 29.9176L71.3703 31.4243C71.3879 31.4569 71.403 31.4921 71.418 31.5247H75.2225C75.2376 31.4896 75.2526 31.4544 75.2702 31.4243L76.1441 29.9176C76.3952 29.5083 76.7719 29.5083 77.013 29.9176L77.8869 31.4243C77.899 31.4471 77.9099 31.4706 77.9195 31.4946C79.7532 31.3398 81.4619 30.5021 82.7073 29.1474C83.9527 27.7927 84.6441 26.0197 84.6445 24.1795V16.3949C84.6445 16.3949 83.2959 15.86 79.7451 15.86Z" fill="#45ABDE"/>
<path d="M68.8265 23.9637C69.6642 23.9637 70.3433 23.2846 70.3433 22.4469C70.3433 21.6093 69.6642 20.9302 68.8265 20.9302C67.9888 20.9302 67.3098 21.6093 67.3098 22.4469C67.3098 23.2846 67.9888 23.9637 68.8265 23.9637Z" fill="#25434E"/>
<path d="M77.814 23.9637C78.6517 23.9637 79.3308 23.2846 79.3308 22.4469C79.3308 21.6093 78.6517 20.9302 77.814 20.9302C76.9763 20.9302 76.2972 21.6093 76.2972 22.4469C76.2972 23.2846 76.9763 23.9637 77.814 23.9637Z" fill="#25434E"/>
<path d="M103.395 14.73C101.619 14.73 100.244 15.3996 99.2696 16.7389C98.2952 18.0782 97.808 19.939 97.808 22.3213C97.808 27.2867 99.6713 29.7695 103.398 29.7695C104.962 29.7695 106.855 29.3786 109.078 28.5967V32.5594C107.134 33.3433 105.052 33.7317 102.956 33.702C99.7165 33.702 97.2389 32.7193 95.5229 30.7539C93.8069 28.7884 92.9489 25.9684 92.9489 22.2937C92.9489 19.9784 93.3674 17.9502 94.2045 16.2091C94.981 14.5336 96.247 13.1327 97.8357 12.1912C99.4144 11.2621 101.265 10.7975 103.388 10.7975C105.655 10.82 107.887 11.3566 109.917 12.367L108.395 16.2041C107.577 15.8144 106.739 15.4691 105.884 15.1695C105.085 14.8833 104.244 14.7347 103.395 14.73Z" fill="#25434E"/>
<path d="M122.701 33.3956L121.802 31.0803H121.679C120.898 32.0647 120.093 32.7478 119.266 33.1295C118.439 33.5112 117.36 33.7012 116.029 33.6995C114.395 33.6995 113.109 33.2324 112.17 32.2983C111.23 31.3641 110.761 30.034 110.761 28.308C110.761 26.5016 111.393 25.169 112.657 24.3102C113.921 23.4514 115.827 22.9767 118.375 22.8863L121.33 22.7959V22.0426C121.33 20.3166 120.447 19.4536 118.681 19.4536C117.32 19.4536 115.721 19.8645 113.885 20.6865L112.345 17.5501C114.363 16.5095 116.605 15.9808 118.874 16.0107C121.16 16.0107 122.911 16.5079 124.128 17.5024C125.345 18.4968 125.954 20.0094 125.956 22.0401V33.3856L122.701 33.3956ZM121.33 25.5055L119.532 25.5658C118.181 25.6059 117.177 25.8495 116.519 26.2965C115.861 26.7435 115.531 27.424 115.529 28.3381C115.529 29.6473 116.283 30.3019 117.79 30.3019C118.866 30.3019 119.726 29.9921 120.371 29.3727C120.696 29.0521 120.949 28.6669 121.116 28.2422C121.282 27.8174 121.358 27.3625 121.338 26.9067L121.33 25.5055Z" fill="#25434E"/>
<path d="M133.218 33.3957L126.729 16.3699H131.589L134.878 26.0706C135.225 27.2026 135.455 28.3671 135.564 29.546H135.659C135.75 28.3605 135.98 27.1898 136.345 26.058L139.609 16.3573H144.473L137.987 33.3831L133.218 33.3957Z" fill="#25434E"/>
<path d="M153.057 33.702C150.316 33.702 148.174 32.9487 146.63 31.442C145.087 29.9352 144.315 27.7932 144.315 25.0158C144.315 22.1698 145.028 19.9642 146.455 18.3989C147.881 16.8336 149.853 16.0543 152.371 16.061C154.777 16.061 156.65 16.7465 157.991 18.1176C159.332 19.4887 160.002 21.3822 160 23.7979V26.058H149.021C149.071 27.3772 149.462 28.4076 150.194 29.1492C150.925 29.8909 151.951 30.2617 153.27 30.2617C154.248 30.2671 155.224 30.1601 156.178 29.9428C157.165 29.7037 158.125 29.362 159.041 28.9232V32.5167C158.215 32.9279 157.34 33.2325 156.437 33.4233C155.323 33.6326 154.19 33.726 153.057 33.702ZM152.401 19.3556C151.417 19.3556 150.645 19.6678 150.086 20.2923C149.527 20.9167 149.207 21.8024 149.127 22.9491H155.656C155.636 21.8024 155.336 20.9167 154.757 20.2923C154.454 19.9761 154.088 19.7287 153.681 19.5671C153.275 19.4054 152.838 19.3333 152.401 19.3556Z" fill="#25434E"/>
<path d="M9.73334 20.0688L14.369 10.9005H19.4642L12.0788 24.5011V33.1672H7.38789V24.6543L0.00250244 10.903H5.12029L9.73334 20.0688Z" fill="#25434E"/>
<path d="M28.0474 33.471C25.3069 33.471 23.1648 32.7176 21.6213 31.2109C20.0777 29.7042 19.306 27.5588 19.306 24.7747C19.306 21.9287 20.0191 19.7231 21.4455 18.1578C22.8718 16.5925 24.844 15.8132 27.3618 15.8199C29.7676 15.8199 31.6409 16.5054 32.9819 17.8765C34.3228 19.2476 34.9925 21.1411 34.9908 23.5568V25.8169H24.0119C24.0621 27.1361 24.4531 28.1665 25.1846 28.9082C25.9162 29.6498 26.9416 30.0206 28.2608 30.0206C29.2392 30.026 30.2149 29.919 31.1688 29.7017C32.156 29.4626 33.1155 29.1209 34.0315 28.6821V32.2756C33.2054 32.6868 32.3303 32.9914 31.4274 33.1822C30.3138 33.3949 29.181 33.4917 28.0474 33.471ZM27.392 19.1246C26.4076 19.1246 25.6358 19.4368 25.0767 20.0613C24.5175 20.6857 24.1978 21.5713 24.1174 22.7181H30.6465C30.6264 21.5713 30.3267 20.6857 29.7475 20.0613C29.4452 19.745 29.0784 19.4977 28.6719 19.336C28.2654 19.1744 27.8288 19.1023 27.392 19.1246Z" fill="#25434E"/>
<path d="M44.3826 29.772C45.378 29.7401 46.363 29.5607 47.3057 29.2396V32.6975C46.1488 33.2148 44.7258 33.4735 43.0367 33.4735C41.1784 33.4735 39.8257 33.0039 38.9786 32.0647C38.1315 31.1255 37.7129 29.7159 37.723 27.8359V19.6268H35.488V17.6631L38.0469 16.1086L39.3879 12.5151H42.3586V16.1388H47.1299V19.6268H42.3586V27.8359C42.3586 28.4955 42.5436 28.9826 42.9136 29.2974C43.3295 29.6285 43.8516 29.7971 44.3826 29.772Z" fill="#25434E"/>
<path d="M48.9907 11.7392C48.9907 10.2325 49.8336 9.47913 51.5194 9.47913C53.2053 9.47913 54.0482 10.2325 54.0482 11.7392C54.0663 12.0483 54.0194 12.3578 53.9104 12.6476C53.8014 12.9374 53.6327 13.2011 53.4154 13.4217C52.9935 13.8235 52.3615 14.0244 51.5194 14.0244C49.8336 14.0244 48.9907 13.2626 48.9907 11.7392ZM53.8347 33.1671H49.189V16.1413H53.8347V33.1671Z" fill="#25434E"/>
</g>
<defs>
<clipPath id="clip0_9_2">
<rect width="160" height="39" fill="white"/>
</clipPath>
</defs>
</svg>
